<?xml version="1.0" standalone="no"?>
<!DOCTYPE svg PUBLIC "-//W3C//DTD SVG 20010904//EN"
 "http://www.w3.org/TR/2001/REC-SVG-20010904/DTD/svg10.dtd">
<svg version="1.0" xmlns="http://www.w3.org/2000/svg"
 width="1280.000000pt" height="1280.000000pt" viewBox="0 0 1280.000000 1280.000000"
 preserveAspectRatio="xMidYMid meet">
<metadata>
Created by potrace 1.14, written by Peter Selinger 2001-2017
</metadata>
<g transform="translate(0.000000,1280.000000) scale(0.100000,-0.100000)"
fill="#000000" stroke="none">
<path d="M11442 12782 c-23 -9 -68 -36 -100 -59 -61 -45 -544 -395 -577 -419
-11 -8 -54 -39 -95 -69 -41 -30 -84 -61 -95 -69 -105 -75 -277 -200 -305 -221
-31 -23 -82 -60 -161 -117 -13 -9 -58 -42 -99 -72 -114 -83 -148 -108 -244
-177 -49 -35 -107 -78 -130 -94 -23 -17 -115 -84 -206 -149 -91 -65 -181 -131
-200 -146 -55 -42 -58 -43 -93 -22 -63 39 -114 66 -262 141 l-151 77 11 39
c35 125 -26 259 -147 321 -97 50 -625 224 -789 260 -13 3 -33 7 -44 9 -11 3
-29 7 -40 9 -11 2 -40 9 -65 16 -25 7 -56 14 -70 15 -14 2 -70 13 -125 24 -55
11 -136 24 -180 30 -44 6 -91 13 -105 15 -24 4 -60 8 -190 21 -114 12 -148 14
-270 21 -162 9 -474 8 -620 0 -120 -8 -139 -9 -255 -21 -38 -4 -88 -9 -110
-10 -22 -2 -49 -6 -60 -8 -11 -3 -45 -8 -76 -11 -31 -4 -66 -8 -77 -11 -11 -2
-37 -6 -58 -9 -177 -27 -596 -126 -722 -170 -23 -9 -45 -15 -47 -15 -8 1 -226
-72 -260 -86 -16 -7 -79 -32 -140 -55 -60 -23 -143 -58 -183 -76 -41 -19 -76
-34 -79 -34 -10 0 -387 -191 -412 -209 -14 -10 -30 -20 -36 -21 -5 -2 -19 -8
-30 -15 -11 -7 -78 -47 -150 -91 -71 -43 -174 -109 -227 -146 -54 -37 -102
-68 -107 -68 -5 0 -11 -4 -13 -8 -1 -4 -39 -34 -83 -67 -71 -52 -271 -212
-301 -240 -6 -5 -37 -32 -68 -59 -102 -88 -258 -238 -386 -373 -532 -559 -973
-1272 -1235 -1998 -41 -113 -120 -361 -139 -435 -4 -14 -17 -68 -31 -120 -13
-52 -26 -106 -29 -120 -3 -14 -12 -56 -21 -95 -15 -68 -20 -97 -31 -160 -3
-16 -7 -37 -9 -45 -2 -8 -7 -35 -10 -60 -3 -25 -8 -56 -10 -70 -12 -67 -22
-141 -30 -230 -3 -36 -8 -81 -10 -100 -25 -199 -26 -913 -1 -1069 3 -14 8 -60
11 -101 4 -41 9 -84 11 -95 2 -11 7 -42 9 -70 3 -27 7 -57 10 -65 2 -8 7 -39
10 -69 3 -30 8 -57 10 -60 2 -4 6 -27 10 -51 3 -25 11 -65 17 -90 5 -25 11
-54 13 -65 4 -19 31 -141 41 -178 2 -9 6 -25 8 -35 2 -9 11 -44 20 -77 9 -33
19 -69 21 -79 18 -77 161 -499 195 -571 5 -11 32 -76 61 -145 67 -158 213
-447 309 -610 138 -236 371 -575 456 -664 71 -74 210 -94 316 -44 l57 26 33
-40 c42 -51 74 -85 175 -189 l83 -84 -64 -90 c-36 -50 -77 -106 -91 -125 -34
-45 -401 -556 -456 -635 -23 -33 -65 -91 -94 -130 -28 -38 -77 -106 -108 -150
-32 -44 -81 -114 -111 -155 -30 -41 -145 -201 -255 -355 -110 -154 -204 -285
-209 -290 -5 -6 -17 -24 -28 -40 -10 -17 -24 -35 -30 -42 -29 -30 -74 -113
-82 -151 -28 -125 33 -255 148 -314 66 -33 169 -34 235 -1 39 19 222 146 290
200 6 5 66 49 135 98 69 50 130 94 135 98 14 11 501 365 622 452 54 38 689
499 758 550 39 28 99 72 135 98 36 25 70 50 75 54 6 5 31 23 56 41 l46 33 49
-27 c27 -15 54 -30 59 -34 12 -9 317 -166 333 -171 8 -3 8 -15 -2 -42 -28 -83
2 -198 70 -268 31 -31 56 -46 159 -90 26 -12 264 -95 340 -120 83 -27 251 -75
365 -104 118 -29 352 -77 388 -79 12 -1 22 -3 22 -6 0 -3 8 -6 18 -6 16 -1 82
-9 142 -19 14 -2 61 -8 105 -14 75 -10 104 -13 246 -26 128 -12 275 -17 464
-17 245 0 403 7 590 28 28 3 70 7 95 9 45 5 117 14 148 19 10 2 39 7 65 10 27
4 59 9 70 12 12 2 36 6 52 9 74 11 110 19 270 55 94 21 240 59 325 85 85 25
162 47 170 50 8 2 15 4 15 5 0 1 7 3 15 5 8 2 49 16 90 30 41 15 98 35 125 45
277 98 678 293 980 478 164 100 536 358 570 396 6 6 30 27 55 46 52 40 78 61
94 75 6 6 45 39 86 75 83 73 108 97 230 215 137 133 219 221 409 441 149 172
431 575 551 788 9 17 41 73 70 125 65 115 205 405 254 526 21 50 43 104 50
120 7 17 19 46 26 65 6 19 16 44 20 55 79 188 237 754 255 913 2 18 7 42 10
53 4 11 8 34 11 52 2 18 6 43 9 57 5 28 10 61 21 140 4 30 9 66 10 80 5 33 13
111 19 185 3 33 8 92 12 130 15 161 7 795 -11 925 -3 19 -7 62 -10 95 -3 33
-8 79 -11 103 -3 23 -7 60 -10 83 -2 22 -6 43 -9 47 -2 4 -7 35 -10 69 -3 34
-8 68 -11 75 -2 7 -7 30 -10 52 -3 21 -7 41 -9 45 -3 3 -7 25 -10 47 -10 67
-54 256 -81 354 -9 30 -18 62 -20 70 -2 8 -4 15 -5 15 -1 0 -3 10 -6 23 -5 27
-120 377 -133 407 -5 11 -24 58 -42 105 -18 47 -43 110 -56 140 -13 30 -28 64
-33 75 -30 71 -192 394 -232 463 -26 46 -48 85 -48 87 0 15 -307 485 -329 505
-4 3 -32 40 -63 82 -71 95 -87 110 -150 141 -71 36 -175 32 -243 -8 l-47 -27
-57 63 c-31 35 -96 106 -146 158 -49 51 -89 96 -88 100 1 4 70 102 153 217
183 255 325 452 365 509 17 24 38 53 48 66 9 13 91 128 182 254 91 127 180
250 199 275 18 25 55 77 82 115 27 39 52 75 57 80 5 6 52 71 105 145 54 74
111 154 127 176 17 23 36 50 43 60 7 11 41 59 75 107 76 107 95 153 91 229 -5
105 -60 190 -154 238 -58 29 -159 35 -218 12z"/>
</g>
</svg>
